<svg width="19" height="33" viewBox="0 0 19 33" fill="none" xmlns="http://www.w3.org/2000/svg">
<path fill-rule="evenodd" clip-rule="evenodd" d="M6.38044 21.2802C6.38044 20.8731 6.05857 20.599 5.66114 20.6691L0.911012 21.5065C0.513585 21.5766 0.191895 21.9642 0.191895 22.3712V31.354C0.191895 31.762 0.513585 32.0362 0.911012 31.9661L5.66114 31.1287C6.05857 31.0586 6.38044 30.671 6.38044 30.2629V21.2802Z" fill="black"/>
<path fill-rule="evenodd" clip-rule="evenodd" d="M18.7535 1.16448C18.7535 0.757398 18.4316 0.48328 18.0342 0.553347L13.2841 1.3908C12.8866 1.46086 12.5649 1.84844 12.5649 2.25552V11.2383C12.5649 11.6463 12.8866 11.9205 13.2841 11.8504L18.0342 11.0129C18.4316 10.9429 18.7535 10.5552 18.7535 10.1472V1.16448Z" fill="black"/>
<path fill-rule="evenodd" clip-rule="evenodd" d="M7.15342 3.26373C6.96995 2.85966 6.47663 2.59348 6.05082 2.66856L0.9614 3.56582C0.535585 3.6409 0.339376 4.02863 0.522843 4.43271L11.7928 29.2543C11.9763 29.6584 12.4705 29.927 12.8963 29.8519L17.9857 28.9546C18.4115 28.8796 18.6069 28.4894 18.4234 28.0853L7.15342 3.26373Z" fill="black"/>
</svg>
