<svg width="10" height="16" viewBox="0 0 10 16" fill="none" xmlns="http://www.w3.org/2000/svg">
<path fill-rule="evenodd" clip-rule="evenodd" d="M3.50328 10.5208C3.50328 10.3145 3.34017 10.1756 3.13877 10.2111L0.731606 10.6355C0.530206 10.671 0.367188 10.8674 0.367188 11.0737V15.6257C0.367188 15.8325 0.530206 15.9714 0.731606 15.9359L3.13877 15.5116C3.34017 15.476 3.50328 15.2796 3.50328 15.0728V10.5208Z" fill="black"/>
<path fill-rule="evenodd" clip-rule="evenodd" d="M9.77403 0.373799C9.77403 0.167507 9.61092 0.028596 9.40952 0.0641028L7.00236 0.488487C6.80096 0.523994 6.63794 0.720403 6.63794 0.926694V5.47877C6.63794 5.68553 6.80096 5.82447 7.00236 5.78896L9.40952 5.36458C9.61092 5.32907 9.77403 5.13263 9.77403 4.92587V0.373799Z" fill="black"/>
<path fill-rule="evenodd" clip-rule="evenodd" d="M3.89549 1.43823C3.80252 1.23346 3.55252 1.09858 3.33674 1.13662L0.757635 1.59132C0.54185 1.62936 0.44242 1.82585 0.535393 2.03062L6.24654 14.6092C6.33951 14.8139 6.58996 14.95 6.80574 14.912L9.38484 14.4573C9.60063 14.4193 9.69961 14.2215 9.60664 14.0168L3.89549 1.43823Z" fill="black"/>
</svg>
