<svg width="157" height="45" viewBox="0 0 157 45" fill="none" xmlns="http://www.w3.org/2000/svg">
<path fill-rule="evenodd" clip-rule="evenodd" d="M16.6978 27.2797C16.6978 26.8726 16.376 26.5985 15.9785 26.6686L11.2284 27.506C10.831 27.5761 10.5093 27.9637 10.5093 28.3708V37.3535C10.5093 37.7615 10.831 38.0357 11.2284 37.9656L15.9785 37.1282C16.376 37.0581 16.6978 36.6705 16.6978 36.2625V27.2797Z" fill="black"/>
<path fill-rule="evenodd" clip-rule="evenodd" d="M29.0709 7.16448C29.0709 6.7574 28.749 6.48328 28.3516 6.55335L23.6014 7.3908C23.204 7.46086 22.8823 7.84844 22.8823 8.25552V17.2383C22.8823 17.6463 23.204 17.9205 23.6014 17.8504L28.3516 17.0129C28.749 16.9429 29.0709 16.5552 29.0709 16.1472V7.16448Z" fill="#FF5D51"/>
<path fill-rule="evenodd" clip-rule="evenodd" d="M17.4708 9.26373C17.2873 8.85966 16.794 8.59348 16.3682 8.66856L11.2788 9.56582C10.853 9.6409 10.6568 10.0286 10.8402 10.4327L22.1102 35.2543C22.2937 35.6584 22.7879 35.927 23.2137 35.8519L28.3031 34.9546C28.7289 34.8796 28.9242 34.4894 28.7408 34.0853L17.4708 9.26373Z" fill="black"/>
<path d="M39.9053 23.8109C39.9053 27.7459 42.4528 30.3616 45.6372 30.3616C47.6389 30.3616 49.0719 29.4063 49.8225 28.3145V30.1569H53.0296V17.5558H49.8225V19.3527C49.0719 18.3064 47.6844 17.3511 45.66 17.3511C42.4528 17.3511 39.9053 19.8758 39.9053 23.8109ZM49.8225 23.8563C49.8225 26.2446 48.2303 27.5639 46.4788 27.5639C44.7729 27.5639 43.1579 26.1992 43.1579 23.8109C43.1579 21.4226 44.7729 20.1488 46.4788 20.1488C48.2303 20.1488 49.8225 21.468 49.8225 23.8563Z" fill="black"/>
<path d="M58.8734 13.3247H55.689V30.1565H58.8734V13.3247Z" fill="black"/>
<path d="M66.9731 19.9668C68.6108 19.9668 69.9301 21.0131 69.9756 22.6736H63.9934C64.2436 20.9449 65.4491 19.9668 66.9731 19.9668ZM72.9553 26.1992H69.5206C69.1112 27.0407 68.3606 27.7231 66.9958 27.7231C65.4036 27.7231 64.1299 26.6768 63.9706 24.8117H73.1827C73.251 24.4022 73.2737 23.9928 73.2737 23.5834C73.2737 19.8304 70.7034 17.3511 67.0641 17.3511C63.3338 17.3511 60.7407 19.8758 60.7407 23.8563C60.7407 27.8141 63.402 30.3616 67.0641 30.3616C70.1803 30.3616 72.2729 28.5192 72.9553 26.1992Z" fill="black"/>
<path d="M78.3216 19.3754V17.5558H75.1372V36.1618H78.3216V28.36C79.095 29.3835 80.5052 30.3616 82.4841 30.3616C85.714 30.3616 88.2388 27.7459 88.2388 23.8109C88.2388 19.8758 85.714 17.3511 82.4841 17.3511C80.528 17.3511 79.0722 18.3064 78.3216 19.3754ZM84.9862 23.8109C84.9862 26.1992 83.3712 27.5639 81.6425 27.5639C79.9366 27.5639 78.3216 26.2446 78.3216 23.8563C78.3216 21.468 79.9366 20.1488 81.6425 20.1488C83.3712 20.1488 84.9862 21.4226 84.9862 23.8109Z" fill="black"/>
<path d="M90.1099 30.1565H93.2943V23.1963C93.2943 21.172 94.4088 20.0802 96.1375 20.0802C97.8207 20.0802 98.9353 21.172 98.9353 23.1963V30.1565H102.12V22.7642C102.12 19.2841 100.05 17.3734 97.2066 17.3734C95.5234 17.3734 94.1131 18.0558 93.2943 19.1249V13.3247H90.1099V30.1565Z" fill="black"/>
<path d="M107.875 17.5557H104.691V30.1568H107.875V17.5557Z" fill="black"/>
<path d="M122.448 17.5557H119.241V24.4931C119.241 26.5175 118.149 27.6093 116.421 27.6093C114.737 27.6093 113.623 26.5175 113.623 24.4931V17.5557H110.438V24.948C110.438 28.4054 112.554 30.316 115.488 30.316C117.058 30.316 118.445 29.6336 119.241 28.5646V30.1568H122.448V17.5557Z" fill="black"/>
<path d="M142.762 30.1571H145.947V22.7648C145.947 19.2847 143.809 17.374 140.783 17.374C138.941 17.374 137.281 18.3521 136.462 19.7851C135.597 18.2156 133.982 17.374 132.026 17.374C130.457 17.374 129.115 18.0336 128.319 19.08V17.556H125.134V30.1571H128.319V23.1969C128.319 21.1953 129.433 20.149 131.162 20.149C132.845 20.149 133.96 21.1953 133.96 23.1969V30.1571H137.144V23.1969C137.144 21.1953 138.259 20.149 139.965 20.149C141.648 20.149 142.762 21.1953 142.762 23.1969V30.1571Z" fill="black"/>
<path fill-rule="evenodd" clip-rule="evenodd" d="M107.91 12.2877C107.91 12.0297 107.707 11.8563 107.46 11.8999L105.129 12.3109C104.877 12.3553 104.674 12.6003 104.674 12.8583V15.7643C104.674 16.022 104.877 16.1957 105.129 16.1512L107.46 15.7403C107.707 15.6967 107.91 15.4513 107.91 15.1937V12.2877Z" fill="black"/>
</svg>
