<svg width="96" height="146" viewBox="0 0 96 146" fill="#007CC2" xmlns="http://www.w3.org/2000/svg">
<path fill-rule="evenodd" clip-rule="evenodd" d="M48 146C74.5097 146 96 124.51 96 98C96 71.4903 74.5097 50 48 50C21.4903 50 0 71.4903 0 98C0 124.51 21.4903 146 48 146ZM48 114C56.8366 114 64 106.837 64 98C64 89.1634 56.8366 82 48 82C39.1634 82 32 89.1634 32 98C32 106.837 39.1634 114 48 114Z" />
<path fill-rule="evenodd" clip-rule="evenodd" d="M42.1236 1.7242C45.9552 -0.574734 50.7419 -0.574734 54.5734 1.7242L84.8211 19.8728C90.551 23.3107 92.4089 30.7427 88.971 36.4726C85.5331 42.2024 78.1011 44.0604 72.3713 40.6225L48.3485 26.2089L24.3258 40.6225C18.5959 44.0604 11.164 42.2024 7.72603 36.4726C4.2881 30.7427 6.1461 23.3107 11.876 19.8728L42.1236 1.7242Z" />
</svg>
